# xmcd
#
# Track frame offsets: 
#        150
#        13768
#        29575
#        42388
#        58093
#        71173
#        86642
#        102715
#        123043
#
# Disc length: 2009 seconds
#
# Revision: 0
# Processed by: cddbd v1.5.2PL0 Copyright (c) Steve Scherf et al.
# Submitted via: ExactAudioCopyFreeDBPlugin 1.0
#
DISCID=7f07d709
DTITLE=Cécile Doo-Kingeé - Anybody Listening Part 1- Monologues
DYEAR=2015
DGENRE=Blues;Hillside
TTITLE0=Make Me
TTITLE1=Third World Child
TTITLE2=Six Letters
TTITLE3=Little Bit
TTITLE4=Home
TTITLE5=Bloostained Vodka
TTITLE6=Sweet Talkin' Devil
TTITLE7=Animal Kingdom
TTITLE8=Anybody Listening
EXTD=
EXTT0=
EXTT1=
EXTT2=
EXTT3=
EXTT4=
EXTT5=
EXTT6=
EXTT7=
EXTT8=
PLAYORDER=
